<?xml version="1.0" encoding="UTF-8" standalone="no"?><svg xmlns="http://www.w3.org/2000/svg" xmlns:xlink="http://www.w3.org/1999/xlink" contentScriptType="application/ecmascript" contentStyleType="text/css" height="611.8px" preserveAspectRatio="none" style="width:599px;height:611px;" version="1.1" viewBox="0 0 599 611" width="599.2px" zoomAndPan="magnify"><defs><filter height="300%" id="fvb0eks252r3g" width="300%" x="-1" y="-1"><feGaussianBlur result="blurOut" stdDeviation="2.8"/><feColorMatrix in="blurOut" result="blurOut2" type="matrix" values="0 0 0 0 0 0 0 0 0 0 0 0 0 0 0 0 0 0 .4 0"/><feOffset dx="5.6" dy="5.6" in="blurOut2" result="blurOut3"/><feBlend in="SourceGraphic" in2="blurOut3" mode="normal"/></filter></defs><g><text fill="#000000" font-family="sans-serif" font-size="25.2" lengthAdjust="spacingAndGlyphs" textLength="494.2" x="57.4" y="23.3912">Weather service class diagram using IoC</text><!--MD5=[7b525f264446ea3cb3aab1e6ab0403b1]
class wc--><rect fill="#FEFECE" filter="url(#fvb0eks252r3g)" height="67.2" id="wc" style="stroke: #A80036; stroke-width: 2.0999999999999996;" width="176.4" x="8.4" y="40.5344"/><ellipse cx="29.4" cy="62.9344" fill="#B4A7E5" rx="15.4" ry="15.4" style="stroke: #A80036; stroke-width: 1.4;"/><path d="M24.3906,57.0062 L24.3906,53.9875 L34.7375,53.9875 L34.7375,57.0062 L31.2812,57.0062 L31.2812,68.3156 L34.7375,68.3156 L34.7375,71.3344 L24.3906,71.3344 L24.3906,68.3156 L27.8469,68.3156 L27.8469,57.0062 L24.3906,57.0062 Z "/><text fill="#000000" font-family="sans-serif" font-size="16.8" font-style="italic" lengthAdjust="spacingAndGlyphs" textLength="131.6" x="49" y="68.7504">WeatherContract</text><line style="stroke: #A80036; stroke-width: 2.0999999999999996;" x1="9.8" x2="183.4" y1="85.3344" y2="85.3344"/><line style="stroke: #A80036; stroke-width: 2.0999999999999996;" x1="9.8" x2="183.4" y1="96.5344" y2="96.5344"/><!--MD5=[e27ec6c0f62a2819cd01b5dacade6e8e]
class w--><rect fill="#FEFECE" filter="url(#fvb0eks252r3g)" height="67.2" id="w" style="stroke: #A80036; stroke-width: 2.0999999999999996;" width="168" x="12.6" y="191.7344"/><ellipse cx="33.6" cy="214.1344" fill="#ADD1B2" rx="15.4" ry="15.4" style="stroke: #A80036; stroke-width: 1.4;"/><path d="M37.0563,222.7313 Q36.2469,223.1469 35.35,223.3438 Q34.4531,223.5625 33.4688,223.5625 Q29.9687,223.5625 28.1094,221.2656 Q26.2719,218.9469 26.2719,214.5719 Q26.2719,210.1969 28.1094,207.8781 Q29.9687,205.5594 33.4688,205.5594 Q34.4531,205.5594 35.35,205.7781 Q36.2688,205.9969 37.0563,206.4125 L37.0563,210.2188 Q36.1813,209.4094 35.35,209.0375 Q34.5188,208.6437 33.6438,208.6437 Q31.7625,208.6437 30.8,210.1531 Q29.8375,211.6406 29.8375,214.5719 Q29.8375,217.5031 30.8,219.0125 Q31.7625,220.5 33.6438,220.5 Q34.5188,220.5 35.35,220.1281 Q36.1813,219.7344 37.0563,218.925 L37.0563,222.7313 Z "/><text fill="#000000" font-family="sans-serif" font-size="16.8" lengthAdjust="spacingAndGlyphs" textLength="123.2" x="53.2" y="219.9504">WeatherService</text><line style="stroke: #A80036; stroke-width: 2.0999999999999996;" x1="14" x2="179.2" y1="236.5344" y2="236.5344"/><line style="stroke: #A80036; stroke-width: 2.0999999999999996;" x1="14" x2="179.2" y1="247.7344" y2="247.7344"/><!--MD5=[39197bbe442d242a97504e358d1a33a8]
class tc--><rect fill="#FEFECE" filter="url(#fvb0eks252r3g)" height="67.2" id="tc" style="stroke: #A80036; stroke-width: 2.0999999999999996;" width="217" x="230.3" y="191.7344"/><ellipse cx="251.3" cy="214.1344" fill="#B4A7E5" rx="15.4" ry="15.4" style="stroke: #A80036; stroke-width: 1.4;"/><path d="M246.2906,208.2062 L246.2906,205.1875 L256.6375,205.1875 L256.6375,208.2062 L253.1812,208.2062 L253.1812,219.5156 L256.6375,219.5156 L256.6375,222.5344 L246.2906,222.5344 L246.2906,219.5156 L249.7469,219.5156 L249.7469,208.2062 L246.2906,208.2062 Z "/><text fill="#000000" font-family="sans-serif" font-size="16.8" font-style="italic" lengthAdjust="spacingAndGlyphs" textLength="172.2" x="270.9" y="219.9504">ThermometerContract</text><line style="stroke: #A80036; stroke-width: 2.0999999999999996;" x1="231.7" x2="445.9" y1="236.5344" y2="236.5344"/><line style="stroke: #A80036; stroke-width: 2.0999999999999996;" x1="231.7" x2="445.9" y1="247.7344" y2="247.7344"/><!--MD5=[c7ffb9edfd102118430eb07dc6c6f7f9]
class t--><rect fill="#FEFECE" filter="url(#fvb0eks252r3g)" height="67.2" id="t" style="stroke: #A80036; stroke-width: 2.0999999999999996;" width="151.2" x="140" y="342.9344"/><ellipse cx="161" cy="365.3344" fill="#ADD1B2" rx="15.4" ry="15.4" style="stroke: #A80036; stroke-width: 1.4;"/><path d="M164.4562,373.9313 Q163.6469,374.3469 162.75,374.5438 Q161.8531,374.7625 160.8687,374.7625 Q157.3687,374.7625 155.5094,372.4656 Q153.6719,370.1469 153.6719,365.7719 Q153.6719,361.3969 155.5094,359.0781 Q157.3687,356.7594 160.8687,356.7594 Q161.8531,356.7594 162.75,356.9781 Q163.6688,357.1969 164.4562,357.6125 L164.4562,361.4188 Q163.5812,360.6094 162.75,360.2375 Q161.9188,359.8438 161.0438,359.8438 Q159.1625,359.8438 158.2,361.3531 Q157.2375,362.8406 157.2375,365.7719 Q157.2375,368.7031 158.2,370.2125 Q159.1625,371.7 161.0438,371.7 Q161.9188,371.7 162.75,371.3281 Q163.5812,370.9344 164.4562,370.125 L164.4562,373.9313 Z "/><text fill="#000000" font-family="sans-serif" font-size="16.8" lengthAdjust="spacingAndGlyphs" textLength="106.4" x="180.6" y="371.1504">Thermometer</text><line style="stroke: #A80036; stroke-width: 2.0999999999999996;" x1="141.4" x2="289.8" y1="387.7344" y2="387.7344"/><line style="stroke: #A80036; stroke-width: 2.0999999999999996;" x1="141.4" x2="289.8" y1="398.9344" y2="398.9344"/><!--MD5=[3dd62f253d515b70206948d1e4e18094]
class tweb--><rect fill="#FEFECE" filter="url(#fvb0eks252r3g)" height="67.2" id="tweb" style="stroke: #A80036; stroke-width: 2.0999999999999996;" width="243.6" x="340.2" y="342.9344"/><ellipse cx="361.2" cy="365.3344" fill="#ADD1B2" rx="15.4" ry="15.4" style="stroke: #A80036; stroke-width: 1.4;"/><path d="M364.6563,373.9313 Q363.8469,374.3469 362.95,374.5438 Q362.0531,374.7625 361.0687,374.7625 Q357.5687,374.7625 355.7094,372.4656 Q353.8719,370.1469 353.8719,365.7719 Q353.8719,361.3969 355.7094,359.0781 Q357.5687,356.7594 361.0687,356.7594 Q362.0531,356.7594 362.95,356.9781 Q363.8688,357.1969 364.6563,357.6125 L364.6563,361.4188 Q363.7813,360.6094 362.95,360.2375 Q362.1188,359.8438 361.2438,359.8438 Q359.3625,359.8438 358.4,361.3531 Q357.4375,362.8406 357.4375,365.7719 Q357.4375,368.7031 358.4,370.2125 Q359.3625,371.7 361.2438,371.7 Q362.1188,371.7 362.95,371.3281 Q363.7813,370.9344 364.6563,370.125 L364.6563,373.9313 Z "/><text fill="#000000" font-family="sans-serif" font-size="16.8" lengthAdjust="spacingAndGlyphs" textLength="198.8" x="380.8" y="371.1504">ThermometerWebService</text><line style="stroke: #A80036; stroke-width: 2.0999999999999996;" x1="341.6" x2="582.4" y1="387.7344" y2="387.7344"/><line style="stroke: #A80036; stroke-width: 2.0999999999999996;" x1="341.6" x2="582.4" y1="398.9344" y2="398.9344"/><!--MD5=[44bf490701c69a5d94785dd8ec3ed374]
class u--><rect fill="#FEFECE" filter="url(#fvb0eks252r3g)" height="103.0531" id="u" style="stroke: #A80036; stroke-width: 2.0999999999999996;" width="176.4" x="250.6" y="494.1344"/><ellipse cx="271.6" cy="516.5344" fill="#EB937F" rx="15.4" ry="15.4" style="stroke: #A80036; stroke-width: 1.4;"/><path d="M277.3531,524.9344 L266.5469,524.9344 L266.5469,507.5875 L277.3531,507.5875 L277.3531,510.6063 L269.9813,510.6063 L269.9813,514.3469 L276.6531,514.3469 L276.6531,517.3656 L269.9813,517.3656 L269.9813,521.9156 L277.3531,521.9156 L277.3531,524.9344 Z "/><text fill="#000000" font-family="sans-serif" font-size="16.8" lengthAdjust="spacingAndGlyphs" textLength="131.6" x="291.2" y="522.3504">TemperatureUnit</text><line style="stroke: #A80036; stroke-width: 2.0999999999999996;" x1="252" x2="425.6" y1="538.9344" y2="538.9344"/><ellipse cx="266" cy="554.3344" fill="none" rx="4.2" ry="4.2" style="stroke: #038048; stroke-width: 1.4;"/><text fill="#000000" font-family="sans-serif" font-size="15.4" lengthAdjust="spacingAndGlyphs" textLength="58.8" x="278.6" y="558.829">CELSIUS</text><ellipse cx="266" cy="572.2609" fill="none" rx="4.2" ry="4.2" style="stroke: #038048; stroke-width: 1.4;"/><text fill="#000000" font-family="sans-serif" font-size="15.4" lengthAdjust="spacingAndGlyphs" textLength="91" x="278.6" y="576.7556">FAHRENHEIT</text><line style="stroke: #A80036; stroke-width: 2.0999999999999996;" x1="252" x2="425.6" y1="585.9875" y2="585.9875"/><!--MD5=[9e07f684e412e88d032fe798cfbf0031]
reverse link wc to w--><path d="M96.6,135.7624 C96.6,154.7464 96.6,174.9904 96.6,191.2864 " fill="none" id="wc&lt;-w" style="stroke: #A80036; stroke-width: 1.4;"/><polygon fill="none" points="86.8,135.7344,96.6,107.7344,106.4,135.7344,86.8,135.7344" style="stroke: #A80036; stroke-width: 1.4;"/><!--MD5=[c6a93bcc86de9dc53e5e98d83c1cde63]
reverse link tc to t--><path d="M293.818,280.9144 C276.682,301.5644 257.684,324.4404 242.704,342.4864 " fill="none" id="tc&lt;-t" style="stroke: #A80036; stroke-width: 1.4;"/><polygon fill="none" points="286.636,274.2224,312.074,258.9344,301.728,286.7384,286.636,274.2224" style="stroke: #A80036; stroke-width: 1.4;"/><!--MD5=[634d41990e1dbf0cb8e79c1648e49ab3]
reverse link tc to tweb--><path d="M383.782,280.9144 C400.918,301.5644 419.916,324.4404 434.896,342.4864 " fill="none" id="tc&lt;-tweb" style="stroke: #A80036; stroke-width: 1.4;"/><polygon fill="none" points="375.872,286.7384,365.526,258.9344,390.964,274.2224,375.872,286.7384" style="stroke: #A80036; stroke-width: 1.4;"/><!--MD5=[f195f740fd274567f6f2335a5311a801]
link w to tc--><path d="M180.796,225.3344 C194.824,225.3344 208.838,225.3344 222.852,225.3344 " fill="none" id="w-&gt;tc" style="stroke: #A80036; stroke-width: 1.4;"/><polygon fill="#A80036" points="230.174,225.3344,217.574,219.7344,223.174,225.3344,217.574,230.9344,230.174,225.3344" style="stroke: #A80036; stroke-width: 1.4;"/><!--MD5=[e1ac14c0b9ef0ef5b35f1dd6dee6696f]
link t to u--><path d="M239.652,410.4564 C255.92,432.4644 277.858,462.1164 296.954,487.9464 " fill="none" id="t-&gt;u" style="stroke: #A80036; stroke-width: 1.4;"/><polygon fill="#A80036" points="301.238,493.7284,298.2426,480.2693,297.0733,488.1021,289.2405,486.9327,301.238,493.7284" style="stroke: #A80036; stroke-width: 1.4;"/><!--MD5=[d4330fde7909b537f8da5053e01913c4]
link tweb to u--><path d="M437.948,410.4564 C421.68,432.4644 399.742,462.1164 380.646,487.9464 " fill="none" id="tweb-&gt;u" style="stroke: #A80036; stroke-width: 1.4;"/><polygon fill="#A80036" points="376.362,493.7284,388.3595,486.9327,380.5267,488.1021,379.3574,480.2693,376.362,493.7284" style="stroke: #A80036; stroke-width: 1.4;"/><!--MD5=[14c22bbd874a1b62e9e2f0e480645e0c]
@startuml

title Weather service class diagram using IoC

interface "WeatherContract" as wc
class "WeatherService" as w

interface "ThermometerContract" as tc
class "Thermometer" as t
class "ThermometerWebService" as tweb

enum "TemperatureUnit" as u {
 + CELSIUS
 + FAHRENHEIT
}

wc <|- - w
tc <|- - t
tc <|- - tweb

w -> tc
t - -> u
tweb - -> u

@enduml

PlantUML version 1.2019.11(Sun Sep 22 12:02:15 CEST 2019)
(GPL source distribution)
Java Runtime: OpenJDK Runtime Environment
JVM: OpenJDK 64-Bit Server VM
Java Version: 11.0.4+10-b520.11
Operating System: Linux
Default Encoding: UTF-8
Language: fr
Country: FR
--></g></svg>