<?xml version="1.0" encoding="UTF-8" standalone="no"?><svg xmlns="http://www.w3.org/2000/svg" xmlns:xlink="http://www.w3.org/1999/xlink" contentScriptType="application/ecmascript" contentStyleType="text/css" height="309.4px" preserveAspectRatio="none" style="width:621px;height:309px;" version="1.1" viewBox="0 0 621 309" width="621.6px" zoomAndPan="magnify"><defs><filter height="300%" id="f17ma3i9v3tbd1" width="300%" x="-1" y="-1"><feGaussianBlur result="blurOut" stdDeviation="2.8"/><feColorMatrix in="blurOut" result="blurOut2" type="matrix" values="0 0 0 0 0 0 0 0 0 0 0 0 0 0 0 0 0 0 .4 0"/><feOffset dx="5.6" dy="5.6" in="blurOut2" result="blurOut3"/><feBlend in="SourceGraphic" in2="blurOut3" mode="normal"/></filter></defs><g><text fill="#000000" font-family="sans-serif" font-size="25.2" lengthAdjust="spacingAndGlyphs" textLength="520.8" x="55.3" y="23.3912">Weather service class diagram without IoC</text><!--MD5=[7b525f264446ea3cb3aab1e6ab0403b1]
class wc--><rect fill="#FEFECE" filter="url(#f17ma3i9v3tbd1)" height="67.2" id="wc" style="stroke: #A80036; stroke-width: 2.0999999999999996;" width="176.4" x="8.4" y="40.5344"/><ellipse cx="29.4" cy="62.9344" fill="#B4A7E5" rx="15.4" ry="15.4" style="stroke: #A80036; stroke-width: 1.4;"/><path d="M24.3906,57.0062 L24.3906,53.9875 L34.7375,53.9875 L34.7375,57.0062 L31.2812,57.0062 L31.2812,68.3156 L34.7375,68.3156 L34.7375,71.3344 L24.3906,71.3344 L24.3906,68.3156 L27.8469,68.3156 L27.8469,57.0062 L24.3906,57.0062 Z "/><text fill="#000000" font-family="sans-serif" font-size="16.8" font-style="italic" lengthAdjust="spacingAndGlyphs" textLength="131.6" x="49" y="68.7504">WeatherContract</text><line style="stroke: #A80036; stroke-width: 2.0999999999999996;" x1="9.8" x2="183.4" y1="85.3344" y2="85.3344"/><line style="stroke: #A80036; stroke-width: 2.0999999999999996;" x1="9.8" x2="183.4" y1="96.5344" y2="96.5344"/><!--MD5=[e27ec6c0f62a2819cd01b5dacade6e8e]
class w--><rect fill="#FEFECE" filter="url(#f17ma3i9v3tbd1)" height="67.2" id="w" style="stroke: #A80036; stroke-width: 2.0999999999999996;" width="168" x="12.6" y="209.9344"/><ellipse cx="33.6" cy="232.3344" fill="#ADD1B2" rx="15.4" ry="15.4" style="stroke: #A80036; stroke-width: 1.4;"/><path d="M37.0563,240.9312 Q36.2469,241.3469 35.35,241.5438 Q34.4531,241.7625 33.4688,241.7625 Q29.9687,241.7625 28.1094,239.4656 Q26.2719,237.1469 26.2719,232.7719 Q26.2719,228.3969 28.1094,226.0781 Q29.9687,223.7594 33.4688,223.7594 Q34.4531,223.7594 35.35,223.9781 Q36.2688,224.1969 37.0563,224.6125 L37.0563,228.4188 Q36.1813,227.6094 35.35,227.2375 Q34.5188,226.8437 33.6438,226.8437 Q31.7625,226.8437 30.8,228.3531 Q29.8375,229.8406 29.8375,232.7719 Q29.8375,235.7031 30.8,237.2125 Q31.7625,238.7 33.6438,238.7 Q34.5188,238.7 35.35,238.3281 Q36.1813,237.9344 37.0563,237.125 L37.0563,240.9312 Z "/><text fill="#000000" font-family="sans-serif" font-size="16.8" lengthAdjust="spacingAndGlyphs" textLength="123.2" x="53.2" y="238.1504">WeatherService</text><line style="stroke: #A80036; stroke-width: 2.0999999999999996;" x1="14" x2="179.2" y1="254.7344" y2="254.7344"/><line style="stroke: #A80036; stroke-width: 2.0999999999999996;" x1="14" x2="179.2" y1="265.9344" y2="265.9344"/><!--MD5=[c7ffb9edfd102118430eb07dc6c6f7f9]
class t--><rect fill="#FEFECE" filter="url(#f17ma3i9v3tbd1)" height="67.2" id="t" style="stroke: #A80036; stroke-width: 2.0999999999999996;" width="151.2" x="229.6" y="209.9344"/><ellipse cx="250.6" cy="232.3344" fill="#ADD1B2" rx="15.4" ry="15.4" style="stroke: #A80036; stroke-width: 1.4;"/><path d="M254.0562,240.9312 Q253.2469,241.3469 252.35,241.5438 Q251.4531,241.7625 250.4687,241.7625 Q246.9687,241.7625 245.1094,239.4656 Q243.2719,237.1469 243.2719,232.7719 Q243.2719,228.3969 245.1094,226.0781 Q246.9687,223.7594 250.4687,223.7594 Q251.4531,223.7594 252.35,223.9781 Q253.2687,224.1969 254.0562,224.6125 L254.0562,228.4188 Q253.1812,227.6094 252.35,227.2375 Q251.5187,226.8437 250.6437,226.8437 Q248.7625,226.8437 247.8,228.3531 Q246.8375,229.8406 246.8375,232.7719 Q246.8375,235.7031 247.8,237.2125 Q248.7625,238.7 250.6437,238.7 Q251.5187,238.7 252.35,238.3281 Q253.1812,237.9344 254.0562,237.125 L254.0562,240.9312 Z "/><text fill="#000000" font-family="sans-serif" font-size="16.8" lengthAdjust="spacingAndGlyphs" textLength="106.4" x="270.2" y="238.1504">Thermometer</text><line style="stroke: #A80036; stroke-width: 2.0999999999999996;" x1="231" x2="379.4" y1="254.7344" y2="254.7344"/><line style="stroke: #A80036; stroke-width: 2.0999999999999996;" x1="231" x2="379.4" y1="265.9344" y2="265.9344"/><!--MD5=[44bf490701c69a5d94785dd8ec3ed374]
class u--><rect fill="#FEFECE" filter="url(#f17ma3i9v3tbd1)" height="103.0531" id="u" style="stroke: #A80036; stroke-width: 2.0999999999999996;" width="176.4" x="429.8" y="191.7344"/><ellipse cx="450.8" cy="214.1344" fill="#EB937F" rx="15.4" ry="15.4" style="stroke: #A80036; stroke-width: 1.4;"/><path d="M456.5531,222.5344 L445.7469,222.5344 L445.7469,205.1875 L456.5531,205.1875 L456.5531,208.2062 L449.1813,208.2062 L449.1813,211.9469 L455.8531,211.9469 L455.8531,214.9656 L449.1813,214.9656 L449.1813,219.5156 L456.5531,219.5156 L456.5531,222.5344 Z "/><text fill="#000000" font-family="sans-serif" font-size="16.8" lengthAdjust="spacingAndGlyphs" textLength="131.6" x="470.4" y="219.9504">TemperatureUnit</text><line style="stroke: #A80036; stroke-width: 2.0999999999999996;" x1="431.2" x2="604.8" y1="236.5344" y2="236.5344"/><ellipse cx="445.2" cy="251.9344" fill="none" rx="4.2" ry="4.2" style="stroke: #038048; stroke-width: 1.4;"/><text fill="#000000" font-family="sans-serif" font-size="15.4" lengthAdjust="spacingAndGlyphs" textLength="58.8" x="457.8" y="256.429">CELSIUS</text><ellipse cx="445.2" cy="269.8609" fill="none" rx="4.2" ry="4.2" style="stroke: #038048; stroke-width: 1.4;"/><text fill="#000000" font-family="sans-serif" font-size="15.4" lengthAdjust="spacingAndGlyphs" textLength="91" x="457.8" y="274.3556">FAHRENHEIT</text><line style="stroke: #A80036; stroke-width: 2.0999999999999996;" x1="431.2" x2="604.8" y1="283.5875" y2="283.5875"/><!--MD5=[9e07f684e412e88d032fe798cfbf0031]
reverse link wc to w--><path d="M96.6,136.2664 C96.6,161.1024 96.6,188.8504 96.6,209.6964 " fill="none" id="wc&lt;-w" style="stroke: #A80036; stroke-width: 1.4;"/><polygon fill="none" points="86.8,136.0564,96.6,108.0564,106.4,136.0564,86.8,136.0564" style="stroke: #A80036; stroke-width: 1.4;"/><!--MD5=[6ff7ac1daab0d0fd642d9e1d1d1c05df]
link w to t--><path d="M180.936,243.5344 C194.712,243.5344 208.488,243.5344 222.278,243.5344 " fill="none" id="w-&gt;t" style="stroke: #A80036; stroke-width: 1.4;"/><polygon fill="#A80036" points="229.474,243.5344,216.874,237.9344,222.474,243.5344,216.874,249.1344,229.474,243.5344" style="stroke: #A80036; stroke-width: 1.4;"/><!--MD5=[e1ac14c0b9ef0ef5b35f1dd6dee6696f]
link t to u--><path d="M380.842,243.5344 C394.688,243.5344 408.52,243.5344 422.366,243.5344 " fill="none" id="t-&gt;u" style="stroke: #A80036; stroke-width: 1.4;"/><polygon fill="#A80036" points="429.604,243.5344,417.004,237.9344,422.604,243.5344,417.004,249.1344,429.604,243.5344" style="stroke: #A80036; stroke-width: 1.4;"/><!--MD5=[b1bc64681bb5381687d98a4029734bd3]
@startuml

title Weather service class diagram without IoC

interface "WeatherContract" as wc
class "WeatherService" as w

class "Thermometer" as t

enum "TemperatureUnit" as u {
 + CELSIUS
 + FAHRENHEIT
}

wc <|- - w

w -> t
t -> u

@enduml

PlantUML version 1.2019.11(Sun Sep 22 12:02:15 CEST 2019)
(GPL source distribution)
Java Runtime: OpenJDK Runtime Environment
JVM: OpenJDK 64-Bit Server VM
Java Version: 11.0.4+10-b520.11
Operating System: Linux
Default Encoding: UTF-8
Language: fr
Country: FR
--></g></svg>